<?xml version="1.0" encoding="UTF-8" standalone="no"?>
<svg width="112px" height="104px" viewBox="0 0 112 104" version="1.1" xmlns="http://www.w3.org/2000/svg" xmlns:xlink="http://www.w3.org/1999/xlink" xmlns:sketch="http://www.bohemiancoding.com/sketch/ns">
    <!-- Generator: Sketch 3.4.4 (17249) - http://www.bohemiancoding.com/sketch -->
    <title>Artboard 1</title>
    <desc>Created with Sketch.</desc>
    <defs></defs>
    <g id="Page-1" stroke="none" stroke-width="1" fill="none" fill-rule="evenodd" sketch:type="MSPage">
        <g id="Artboard-1" sketch:type="MSArtboardGroup">
            <path d="M77.5119284,82.9496033 C77.5119284,82.9496033 21.8984442,98.822975 15.8105777,60.7615578 C9.72271112,22.7001406 39.3790103,13 56.241821,13 C73.1046318,13 100.729422,22.6499457 96.1268347,60.7615562" id="Path-1" stroke="#979797" stroke-width="5" sketch:type="MSShapeGroup"></path>
            <path d="M45,57 C48.8659932,57 52,53.8659932 52,50 C52,46.1340068 48.8659932,43 45,43 C41.1340068,43 38,46.1340068 38,50 C38,53.8659932 41.1340068,57 45,57 Z" id="Oval-1" stroke="#EEE24E" fill="#D8D8D8" sketch:type="MSShapeGroup"></path>
            <path d="M68,57 C71.8659932,57 75,53.8659932 75,50 C75,46.1340068 71.8659932,43 68,43 C64.1340068,43 61,46.1340068 61,50 C61,53.8659932 64.1340068,57 68,57 Z" id="Oval-1-Copy" stroke="#EEE24E" fill="#D8D8D8" sketch:type="MSShapeGroup"></path>
        </g>
    </g>
</svg>