<?xml version="1.0" encoding="UTF-8" standalone="no"?>
<svg width="112px" height="104px" viewBox="0 0 112 104" version="1.1" xmlns="http://www.w3.org/2000/svg" xmlns:xlink="http://www.w3.org/1999/xlink" xmlns:sketch="http://www.bohemiancoding.com/sketch/ns">
    <!-- Generator: Sketch 3.4.4 (17249) - http://www.bohemiancoding.com/sketch -->
    <title>Artboard 1</title>
    <desc>Created with Sketch.</desc>
    <defs></defs>
    <g id="Page-1" stroke="none" stroke-width="1" fill="none" fill-rule="evenodd" sketch:type="MSPage">
        <g id="Artboard-1" sketch:type="MSArtboardGroup">
            <path d="M77.5119284,82.9496033 C77.5119284,82.9496033 21.8984442,98.822975 15.8105777,60.7615578 C9.72271112,22.7001406 39.3790103,13 56.241821,13 C73.1046318,13 100.729422,22.6499457 96.1268347,60.7615562" id="Path-1" stroke="#979797" stroke-width="5" sketch:type="MSShapeGroup"></path>
            <path d="M47.5960278,77.0478503 C47.5960278,77.0478503 47.1848958,77.9541011 48.2848305,75.6373694 C48.576781,75.0224501 48.9337213,73.975693 48.9638676,73.2311194 C49.0472986,71.1704835 48.8795573,68.8525391 48.8795573,68.8525391 C48.8795573,68.8525391 40.223958,70.2535806 38.1500651,66.6201172 C36.0761722,62.9866538 33.4931642,59.4075519 32.4938151,59.4075521 C31.494466,59.4075522 30.4003905,56.8382161 33.1735026,57.3486328 C35.9466147,57.8590495 37.2923177,59.4075521 37.2923177,59.4075521 C37.2923177,59.4075521 40.7122398,64.5859373 43.0537109,64.5859375 C45.3951821,64.5859377 48.9638676,65.2236315 48.9638672,64.202474 C48.963867,63.7463181 49.267058,62.566807 49.884766,61.5250651 C50.6498688,60.2347472 51.7270816,59.0949984 51.2874349,59.0820313 C50.4928381,59.058595 36.0944011,59.3281247 35.1575522,44.3688147 C34.9662387,41.3139819 35.6461061,38.7677556 36.1347655,37.2805988 C36.623425,35.793442 38.6393227,32.887695 38.6393227,32.887695 C38.6393227,32.887695 37.462244,23.7203781 39.4254557,23.7203776 C41.3886675,23.7203771 47.6057939,26.1624347 48.2848307,27.2740885 C48.6141304,27.8131863 52.2085134,26.6005624 56.4700512,26.506836 C60.996075,26.4072926 66.1943359,27.4085286 66.1943359,27.4085286 C66.1943359,27.4085286 75.1113266,22.5328776 75.8720703,23.7431641 C76.632814,24.9534505 77.9580063,27.4085289 75.8720688,32.8876954 C75.3468034,34.2674187 77.2970853,34.1718435 78.5019516,37.2805993 C79.9537185,41.0263996 80.1611055,47.4300023 78.5019531,49.9394531 C77.5389894,51.3959258 76.5932706,53.1544168 75.1113266,54.5009772 C71.9208402,57.3999955 67.5277035,59.3586404 64.1575521,59.1054688 C62.4396667,58.9764182 64.3798034,60.0588145 64.7047524,60.5690104 C65.3133937,61.524626 65.9013682,62.5483883 65.9013672,64.4498698 C65.9013657,67.3665377 66.4531275,75.9951146 67.1731781,76.5634753 C67.8932287,77.1318359 58.9739594,78.2011702 58.0000004,78.2011702 C57.0260414,78.2011702 47.5960278,77.0478503 47.5960278,77.0478503 Z" id="Path-2" fill="#FCD94E" sketch:type="MSShapeGroup"></path>
        </g>
    </g>
</svg>