<?xml version="1.0" encoding="UTF-8" standalone="no"?>
<svg width="56px" height="56px" viewBox="0 0 56 56" version="1.1" xmlns="http://www.w3.org/2000/svg" xmlns:xlink="http://www.w3.org/1999/xlink" xmlns:sketch="http://www.bohemiancoding.com/sketch/ns">
    <!-- Generator: Sketch 3.4.4 (17249) - http://www.bohemiancoding.com/sketch -->
    <title>Untitled</title>
    <desc>Created with Sketch.</desc>
    <defs></defs>
    <g id="Page-1" stroke="none" stroke-width="1" fill="none" fill-rule="evenodd" sketch:type="MSPage">
        <path d="M28,55 C42.9116882,55 55,42.9116882 55,28 C55,13.0883118 42.9116882,1 28,1 C13.0883118,1 1,13.0883118 1,28 C1,42.9116882 13.0883118,55 28,55 Z M28,49 C39.5979797,49 49,39.5979797 49,28 C49,16.4020203 39.5979797,7 28,7 C16.4020203,7 7,16.4020203 7,28 C7,39.5979797 16.4020203,49 28,49 Z" id="Oval-1" stroke="#000000" sketch:type="MSShapeGroup"></path>
        <path d="M41.0922852,40.1513672 L39.7777951,42 C38.3491583,41.1743078 36.6749997,39.8178338 34.7552691,37.9305374 C32.1658649,40.5124638 29.0407689,41.8034076 25.3798871,41.8034076 C22.2696258,41.8034076 19.7621083,40.9449627 17.8572593,39.2280472 C15.9524102,37.5111317 15,35.5648864 15,33.3892529 C15,31.6199125 15.6473413,30.014424 16.9420434,28.5727392 C18.2367455,27.1310544 20.1787695,25.8597696 22.7681736,24.7588467 C21.5627613,23.5399677 20.651275,22.4390613 20.0336872,21.4560944 C19.4160994,20.4731275 19.1073102,19.4705163 19.1073102,18.4482307 C19.1073102,16.6919965 19.8885842,15.1782501 21.4511557,13.9069463 C23.0137271,12.6356424 24.9483104,12 27.2549635,12 C29.4425636,12 31.2543752,12.5996008 32.6904528,13.7988204 C34.1265304,14.9980401 34.8445584,16.4495328 34.8445584,18.1533421 C34.8445584,19.542602 34.3274294,20.8237163 33.2931559,21.9967235 C32.2588824,23.1697306 30.7149362,24.2280425 28.6612708,25.1716907 L34.5766904,31.7771953 C35.157074,30.7024848 36.1839221,26.7837567 36.6303711,25.1716909 L41.0922852,25.1716909 C40.7248417,26.4463051 40.47175,28.276608 39.7777958,30.1635742 C39.0945817,32.0213365 37.9723712,33.9394916 37.3669826,34.7457405 C38.9890806,36.5675058 40.5603954,36.8034028 42.3461914,37.9305382 L41.0922852,40.1513672 Z M26.6076157,22.9108781 C28.2148321,22.1113984 29.3048954,21.3578017 29.8778382,20.6500655 C30.4507811,19.9423294 30.7372482,19.1363086 30.7372482,18.231979 C30.7372482,17.2359059 30.3689333,16.4331616 29.6322925,15.8237221 C28.8956517,15.2142827 28.0288096,14.9095675 27.0317401,14.9095675 C26.0197891,14.9095675 25.1343452,15.2044531 24.3753819,15.7942333 C23.6164186,16.3840134 23.2369427,17.1441631 23.2369427,18.0747051 C23.2369427,18.4023607 23.3336719,18.8184772 23.5271331,19.3230668 C23.7205943,19.8276565 24.7474116,21.0235817 26.6076157,22.9108781 L26.6076157,22.9108781 Z M32.2328449,35.1192661 L24.8664734,27.0589777 C23.0211509,28.0288384 21.6409001,29.0216201 20.7256797,30.0373526 C19.8104592,31.053085 19.3528559,32.0851848 19.3528559,33.1336828 C19.3528559,34.4180929 19.9071884,35.6598892 21.0158701,36.8591088 C22.1245517,38.0583284 23.5940909,38.6579292 25.4245318,38.6579292 C26.6299441,38.6579292 27.8651011,38.3302785 29.1300399,37.6749672 C30.3949787,37.019656 31.4292367,36.1677641 32.2328449,35.1192661 L32.2328449,35.1192661 Z" id="&amp;" stroke="#000000" sketch:type="MSShapeGroup"></path>
    </g>
</svg>