<?xml version="1.0" encoding="UTF-8" standalone="no"?>
<svg width="112px" height="104px" viewBox="0 0 112 104" version="1.1" xmlns="http://www.w3.org/2000/svg" xmlns:xlink="http://www.w3.org/1999/xlink" xmlns:sketch="http://www.bohemiancoding.com/sketch/ns">
    <!-- Generator: Sketch 3.4.4 (17249) - http://www.bohemiancoding.com/sketch -->
    <title>Artboard 1</title>
    <desc>Created with Sketch.</desc>
    <defs>
        <path id="path-1" d="M81.5728185,31.5427289 C82.8321489,30.1016147 82.7502975,28.5924698 82.7502975,28.5924698 C82.7502975,28.5924698 78.8873927,31.5427289 75.6568907,31.5427288 C72.4263887,31.5427287 71.1187779,25.5423278 61.4609448,29.3430193 C59.581319,30.0827171 57.9456326,31.575911 56.4971196,34.887954 C55.0486066,38.199997 56.4971196,42.1925423 55.8412408,42.192542 C40.3574391,42.1925335 35.8999057,33.892458 33.441189,31.5427289 C30.9824723,29.1929998 32.7305929,27.732905 31.6079075,29.3430194 C30.8493974,30.4308468 29.8688303,34.5142178 30.1929932,37.1122057 C30.7385584,41.4846105 33.197886,45.3842318 35.104384,45.3842326 C38.1436818,45.3842338 31.3482117,46.7209531 30.1929932,44.4567474 C29.0377747,42.1925416 29.2147107,53.0655213 39.2663668,55.7880481 C40.9749393,56.250821 39.439562,55.8486794 39.9079015,56.0494559 C42.1948372,57.029862 34.5410438,56.0494562 34.5410438,56.0494562 C34.5410438,56.0494562 35.2076165,59.0330987 37.7978007,61.3038733 C39.6600092,62.9364427 43.2880993,63.997559 44.7679237,64.2661189 C46.732934,64.6227308 39.5531322,67.6785848 34.5410437,68.9731772 C30.5285061,70.0095916 28.7107797,69.4444309 28.1040111,68.9731772 C26.7393237,67.9132771 40.4232961,78.1681218 57.4085481,72.0832496 C74.3938001,65.9983773 80.1870155,43.574923 78.7270094,39.2731039 C78.3049064,38.0294029 83.9043462,36.381633 83.9043745,33.6636734 C83.9043858,32.5768711 79.2246171,35.662739 78.4039592,34.8879539 C77.7632326,34.2830425 80.3428834,32.9502045 81.5728185,31.5427289 Z"></path>
    </defs>
    <g id="Page-1" stroke="none" stroke-width="1" fill="none" fill-rule="evenodd" sketch:type="MSPage">
        <g id="Artboard-1" sketch:type="MSArtboardGroup">
            <path d="M77.5119284,82.9496033 C77.5119284,82.9496033 21.8984442,98.822975 15.8105777,60.7615578 C9.72271112,22.7001406 39.3790103,13 56.241821,13 C73.1046318,13 100.729422,22.6499457 96.1268347,60.7615562" id="Path-1" stroke="#979797" stroke-width="5" sketch:type="MSShapeGroup"></path>
            <g id="Path-3">
                <use fill="#FCD94E" fill-rule="evenodd" sketch:type="MSShapeGroup" xlink:href="#path-1"></use>
                <use fill="none" xlink:href="#path-1"></use>
            </g>
        </g>
    </g>
</svg>